<svg width="1153" height="430" viewBox="0 0 1153 430" fill="none" xmlns="http://www.w3.org/2000/svg">
<g clip-path="url(#clip0_1507_2)">
<path d="M14.1421 364.821C6.33165 357.011 6.33165 344.348 14.1421 336.537L303.46 47.2188C311.271 39.4083 323.934 39.4083 331.745 47.2188L348.704 64.1779C356.514 71.9884 356.514 84.6517 348.704 92.4621L59.3855 381.78C51.575 389.591 38.9117 389.591 31.1012 381.78L14.1421 364.821Z" fill="#BBDCFF"/>
<path d="M270.143 364.879C262.333 357.069 262.333 344.406 270.143 336.595L301.013 305.725C308.824 297.915 321.487 297.915 329.297 305.725L346.256 322.684C354.067 330.495 354.067 343.158 346.256 350.968L315.386 381.838C307.576 389.649 294.913 389.649 287.102 381.839L270.143 364.879Z" fill="#2C3B73"/>
<path d="M142.143 364.849C134.333 357.038 134.333 344.375 142.143 336.564L300.092 178.615C307.903 170.805 320.566 170.805 328.377 178.615L345.336 195.574C353.146 203.385 353.146 216.048 345.336 223.859L187.386 381.808C179.576 389.618 166.913 389.618 159.102 381.808L142.143 364.849Z" fill="#47568C"/>
</g>
<path d="M522.955 144.568V69.996H541.701V144.568H522.955ZM460.331 144.568V69.996H479.077V144.568H460.331ZM541.701 70.202H522.955C522.955 63.0607 520.964 57.5673 516.981 53.722C513.136 49.8767 507.78 47.954 500.913 47.954V31.68C509.016 31.68 516.088 33.328 522.131 36.624C528.311 39.7827 533.118 44.3147 536.551 50.22C539.984 55.988 541.701 62.6487 541.701 70.202ZM460.331 70.202C460.331 62.6487 462.048 55.988 465.481 50.22C468.914 44.3147 473.721 39.7827 479.901 36.624C486.081 33.328 493.154 31.68 501.119 31.68V47.954C494.252 47.954 488.828 49.8767 484.845 53.722C481 57.5673 479.077 63.0607 479.077 70.202H460.331ZM541.701 144.362C541.701 152.053 539.984 158.782 536.551 164.55C533.118 170.318 528.311 174.85 522.131 178.146C516.088 181.442 509.016 183.09 500.913 183.09V166.816C507.78 166.816 513.136 164.893 516.981 161.048C520.964 157.065 522.955 151.503 522.955 144.362H541.701ZM460.331 144.362H479.077C479.077 151.503 481 157.065 484.845 161.048C488.828 164.893 494.252 166.816 501.119 166.816V183.09C493.154 183.09 486.081 181.442 479.901 178.146C473.721 174.85 468.914 170.318 465.481 164.55C462.048 158.782 460.331 152.053 460.331 144.362ZM563.307 180V75.97H582.053V180H563.307ZM621.193 180V109.136H639.939V180H621.193ZM621.193 109.136C621.193 103.368 619.408 98.6987 615.837 95.128C612.266 91.42 607.666 89.566 602.035 89.566L606.773 72.88C613.09 72.88 618.721 74.4593 623.665 77.618C628.746 80.7767 632.729 85.1027 635.613 90.596C638.497 96.0893 639.939 102.269 639.939 109.136H621.193ZM573.813 109.548C573.813 102.544 575.255 96.2953 578.139 90.802C581.023 85.1713 584.937 80.7767 589.881 77.618C594.825 74.4593 600.456 72.88 606.773 72.88L602.035 89.566C596.13 89.566 591.323 91.42 587.615 95.128C583.907 98.836 582.053 103.643 582.053 109.548H573.813ZM665.613 148.482V34.564L684.359 34.77V148.482H665.613ZM653.665 91.42V75.97H710.315V91.42H653.665ZM665.613 148.276H684.359C684.359 152.259 684.909 155.623 686.007 158.37C687.106 161.117 688.685 163.245 690.745 164.756C692.805 166.129 695.277 166.816 698.161 166.816L696.513 183.09C686.9 183.09 679.347 180.069 673.853 174.026C668.36 167.846 665.613 159.263 665.613 148.276ZM707.843 163.314L715.259 176.704C712.513 178.764 709.491 180.343 706.195 181.442C703.037 182.541 699.809 183.09 696.513 183.09L698.161 166.816C699.947 166.816 701.595 166.541 703.105 165.992C704.753 165.305 706.333 164.413 707.843 163.314ZM778.292 143.126V112.844H797.038V143.126H778.292ZM720.406 143.126V112.844H739.152V143.126H720.406ZM758.104 89.154V72.88H759.34V89.154H758.104ZM758.104 183.09V166.816H759.34V183.09H758.104ZM720.406 113.05C720.406 105.359 722.054 98.4927 725.35 92.45C728.783 86.4073 733.315 81.6693 738.946 78.236C744.714 74.6653 751.237 72.88 758.516 72.88V89.154C752.473 89.154 747.735 91.214 744.302 95.334C740.869 99.454 739.152 105.359 739.152 113.05H720.406ZM797.038 113.05H778.292C778.292 105.359 776.575 99.454 773.142 95.334C769.846 91.214 765.108 89.154 758.928 89.154V72.88C766.207 72.88 772.661 74.6653 778.292 78.236C784.06 81.6693 788.592 86.4073 791.888 92.45C795.321 98.4927 797.038 105.359 797.038 113.05ZM720.406 142.92H739.152C739.152 150.473 740.869 156.379 744.302 160.636C747.735 164.756 752.473 166.816 758.516 166.816V183.09C751.237 183.09 744.714 181.373 738.946 177.94C733.315 174.369 728.783 169.563 725.35 163.52C722.054 157.477 720.406 150.611 720.406 142.92ZM797.038 142.92C797.038 150.611 795.321 157.477 791.888 163.52C788.592 169.563 784.06 174.369 778.292 177.94C772.661 181.373 766.207 183.09 758.928 183.09V166.816C765.108 166.816 769.846 164.756 773.142 160.636C776.575 156.379 778.292 150.473 778.292 142.92H797.038ZM816.083 180V31.68H834.829V180H816.083ZM911.774 143.126V112.844H930.52V143.126H911.774ZM853.888 143.126V112.844H872.634V143.126H853.888ZM891.586 89.154V72.88H892.822V89.154H891.586ZM891.586 183.09V166.816H892.822V183.09H891.586ZM853.888 113.05C853.888 105.359 855.536 98.4927 858.832 92.45C862.265 86.4073 866.797 81.6693 872.428 78.236C878.196 74.6653 884.719 72.88 891.998 72.88V89.154C885.955 89.154 881.217 91.214 877.784 95.334C874.35 99.454 872.634 105.359 872.634 113.05H853.888ZM930.52 113.05H911.774C911.774 105.359 910.057 99.454 906.624 95.334C903.328 91.214 898.59 89.154 892.41 89.154V72.88C899.688 72.88 906.143 74.6653 911.774 78.236C917.542 81.6693 922.074 86.4073 925.37 92.45C928.803 98.4927 930.52 105.359 930.52 113.05ZM853.888 142.92H872.634C872.634 150.473 874.35 156.379 877.784 160.636C881.217 164.756 885.955 166.816 891.998 166.816V183.09C884.719 183.09 878.196 181.373 872.428 177.94C866.797 174.369 862.265 169.563 858.832 163.52C855.536 157.477 853.888 150.611 853.888 142.92ZM930.52 142.92C930.52 150.611 928.803 157.477 925.37 163.52C922.074 169.563 917.542 174.369 911.774 177.94C906.143 181.373 899.688 183.09 892.41 183.09V166.816C898.59 166.816 903.328 164.756 906.624 160.636C910.057 156.379 911.774 150.473 911.774 142.92H930.52ZM1003.71 183.708V75.97H1022.46V183.708H1003.71ZM945.823 144.156V109.136H964.569V144.156H945.823ZM964.569 109.136H945.823C945.823 102.269 947.265 96.0893 950.149 90.596C953.033 85.1027 956.947 80.7767 961.891 77.618C966.972 74.4593 972.74 72.88 979.195 72.88L983.933 89.566C978.302 89.566 973.633 91.42 969.925 95.128C966.354 98.6987 964.569 103.368 964.569 109.136ZM1011.95 109.548H1003.71C1003.71 103.643 1001.86 98.836 998.147 95.128C994.439 91.42 989.701 89.566 983.933 89.566L979.195 72.88C985.375 72.88 990.937 74.4593 995.881 77.618C1000.96 80.7767 1004.88 85.1713 1007.62 90.802C1010.51 96.2953 1011.95 102.544 1011.95 109.548ZM964.569 144.156C964.569 149.924 966.354 154.662 969.925 158.37C973.633 161.941 978.302 163.726 983.933 163.726L979.195 180.412C972.74 180.412 966.972 178.833 961.891 175.674C956.947 172.515 953.033 168.189 950.149 162.696C947.265 157.203 945.823 151.023 945.823 144.156H964.569ZM1011.95 143.538C1011.95 150.542 1010.51 156.859 1007.62 162.49C1004.88 167.983 1000.96 172.378 995.881 175.674C990.937 178.833 985.375 180.412 979.195 180.412L983.933 163.726C989.701 163.726 994.439 161.872 998.147 158.164C1001.86 154.456 1003.71 149.581 1003.71 143.538H1011.95ZM1022.46 183.09C1022.46 190.094 1020.81 196.343 1017.51 201.836C1014.22 207.467 1009.68 211.861 1003.92 215.02C998.147 218.316 991.624 219.964 984.345 219.964V203.69C989.976 203.69 994.576 201.699 998.147 197.716C1001.86 193.871 1003.71 188.995 1003.71 183.09H1022.46ZM964.775 185.768C965.462 191.811 967.659 196.274 971.367 199.158C975.075 202.179 979.401 203.69 984.345 203.69V219.964C978.028 219.964 972.191 218.659 966.835 216.05C961.479 213.441 957.084 209.801 953.651 205.132C950.355 200.463 948.295 195.175 947.471 189.27L964.775 185.768ZM1045.85 218.11L1049.76 202.66C1055.12 204.033 1059.58 203.69 1063.15 201.63C1066.72 199.57 1069.54 195.313 1071.6 188.858H1088.9C1084.78 201.767 1079.08 210.557 1071.8 215.226C1064.66 219.895 1056.01 220.857 1045.85 218.11ZM1071.6 188.858L1106.82 75.97H1125.57L1088.9 188.858H1071.6ZM1075.1 187.622L1038.84 75.97H1057.59L1084.37 161.46L1075.1 187.622ZM471.867 395V378.726H528.929V395H471.867ZM474.957 330.934V314.248H516.569V330.934H474.957ZM461.361 249.77H480.107V395H461.361V249.77ZM473.927 249.77H526.869V266.044H473.927V249.77ZM549.474 395V246.68H568.22V395H549.474ZM593.252 348.65V335.26H663.498V348.65H593.252ZM625.182 398.296V382.022H626.212V398.296H625.182ZM587.278 358.126V327.844H606.024V358.126H587.278ZM644.752 335.26V324.548H663.498V335.26H644.752ZM663.498 324.548H644.752C644.752 318.505 642.898 313.561 639.19 309.716C635.62 305.871 630.95 303.948 625.182 303.948V287.88C632.598 287.88 639.122 289.459 644.752 292.618C650.52 295.777 655.052 300.171 658.348 305.802C661.782 311.295 663.498 317.544 663.498 324.548ZM645.576 364.1L663.086 367.602C662.262 373.507 660.134 378.795 656.7 383.464C653.267 388.133 648.941 391.773 643.722 394.382C638.504 396.991 632.667 398.296 626.212 398.296V382.022C631.156 382.022 635.414 380.58 638.984 377.696C642.692 374.675 644.89 370.143 645.576 364.1ZM587.278 328.05C587.278 320.222 588.926 313.355 592.222 307.45C595.656 301.407 600.188 296.669 605.818 293.236C611.586 289.665 618.11 287.88 625.388 287.88V303.948C619.346 303.948 614.608 306.077 611.174 310.334C607.741 314.454 606.024 320.359 606.024 328.05H587.278ZM587.278 358.126H606.024C606.024 365.679 607.741 371.585 611.174 375.842C614.608 379.962 619.346 382.022 625.388 382.022V398.296C618.11 398.296 611.586 396.579 605.818 393.146C600.188 389.575 595.656 384.769 592.222 378.726C588.926 372.683 587.278 365.817 587.278 358.126ZM680.493 395V290.97H699.239V395H680.493ZM734.259 395V324.136H753.005V395H734.259ZM690.793 324.548C690.793 317.544 692.098 311.295 694.707 305.802C697.454 300.171 701.162 295.777 705.831 292.618C710.501 289.459 715.719 287.88 721.487 287.88L716.749 304.566C711.805 304.566 707.617 306.42 704.183 310.128C700.887 313.836 699.239 318.643 699.239 324.548H690.793ZM734.259 324.136C734.259 318.368 732.611 313.699 729.315 310.128C726.019 306.42 721.831 304.566 716.749 304.566L721.487 287.88C727.53 287.88 732.886 289.459 737.555 292.618C742.362 295.777 746.139 300.103 748.885 305.596C751.632 310.952 753.005 317.132 753.005 324.136H734.259ZM787.819 395V324.136H806.565V395H787.819ZM744.559 324.548C744.559 317.544 745.864 311.295 748.473 305.802C751.22 300.171 754.859 295.777 759.391 292.618C764.061 289.459 769.279 287.88 775.047 287.88L770.309 304.566C765.365 304.566 761.245 306.42 757.949 310.128C754.653 313.836 753.005 318.643 753.005 324.548H744.559ZM787.819 324.136C787.819 318.368 786.171 313.699 782.875 310.128C779.717 306.42 775.528 304.566 770.309 304.566L775.047 287.88C781.09 287.88 786.446 289.459 791.115 292.618C795.922 295.777 799.699 300.103 802.445 305.596C805.192 310.952 806.565 317.132 806.565 324.136H787.819ZM827.722 348.65V335.26H897.968V348.65H827.722ZM859.652 398.296V382.022H860.682V398.296H859.652ZM821.748 358.126V327.844H840.494V358.126H821.748ZM879.222 335.26V324.548H897.968V335.26H879.222ZM897.968 324.548H879.222C879.222 318.505 877.368 313.561 873.66 309.716C870.09 305.871 865.42 303.948 859.652 303.948V287.88C867.068 287.88 873.592 289.459 879.222 292.618C884.99 295.777 889.522 300.171 892.818 305.802C896.252 311.295 897.968 317.544 897.968 324.548ZM880.046 364.1L897.556 367.602C896.732 373.507 894.604 378.795 891.17 383.464C887.737 388.133 883.411 391.773 878.192 394.382C872.974 396.991 867.137 398.296 860.682 398.296V382.022C865.626 382.022 869.884 380.58 873.454 377.696C877.162 374.675 879.36 370.143 880.046 364.1ZM821.748 328.05C821.748 320.222 823.396 313.355 826.692 307.45C830.126 301.407 834.658 296.669 840.288 293.236C846.056 289.665 852.58 287.88 859.858 287.88V303.948C853.816 303.948 849.078 306.077 845.644 310.334C842.211 314.454 840.494 320.359 840.494 328.05H821.748ZM821.748 358.126H840.494C840.494 365.679 842.211 371.585 845.644 375.842C849.078 379.962 853.816 382.022 859.858 382.022V398.296C852.58 398.296 846.056 396.579 840.288 393.146C834.658 389.575 830.126 384.769 826.692 378.726C823.396 372.683 821.748 365.817 821.748 358.126ZM914.963 395V290.97H933.709V395H914.963ZM972.849 395V324.136H991.595V395H972.849ZM972.849 324.136C972.849 318.368 971.064 313.699 967.493 310.128C963.923 306.42 959.322 304.566 953.691 304.566L958.429 287.88C964.747 287.88 970.377 289.459 975.321 292.618C980.403 295.777 984.385 300.103 987.269 305.596C990.153 311.089 991.595 317.269 991.595 324.136H972.849ZM925.469 324.548C925.469 317.544 926.911 311.295 929.795 305.802C932.679 300.171 936.593 295.777 941.537 292.618C946.481 289.459 952.112 287.88 958.429 287.88L953.691 304.566C947.786 304.566 942.979 306.42 939.271 310.128C935.563 313.836 933.709 318.643 933.709 324.548H925.469ZM1017.27 363.482V249.564L1036.02 249.77V363.482H1017.27ZM1005.32 306.42V290.97H1061.97V306.42H1005.32ZM1017.27 363.276H1036.02C1036.02 367.259 1036.57 370.623 1037.66 373.37C1038.76 376.117 1040.34 378.245 1042.4 379.756C1044.46 381.129 1046.93 381.816 1049.82 381.816L1048.17 398.09C1038.56 398.09 1031 395.069 1025.51 389.026C1020.02 382.846 1017.27 374.263 1017.27 363.276ZM1059.5 378.314L1066.92 391.704C1064.17 393.764 1061.15 395.343 1057.85 396.442C1054.69 397.541 1051.47 398.09 1048.17 398.09L1049.82 381.816C1051.6 381.816 1053.25 381.541 1054.76 380.992C1056.41 380.305 1057.99 379.413 1059.5 378.314ZM1126.45 368.22C1126.45 364.787 1125.21 361.971 1122.74 359.774C1120.27 357.439 1117.04 355.379 1113.06 353.594C1109.21 351.671 1105.09 349.749 1100.7 347.826C1096.44 345.903 1092.32 343.706 1088.34 341.234C1084.49 338.625 1081.33 335.397 1078.86 331.552C1076.39 327.569 1075.15 322.763 1075.15 317.132C1075.15 317.132 1075.7 317.132 1076.8 317.132C1078.04 317.132 1079.55 317.132 1081.33 317.132C1083.26 317.132 1085.11 317.132 1086.89 317.132C1088.68 317.132 1090.19 317.132 1091.43 317.132C1092.66 317.132 1093.28 317.132 1093.28 317.132C1093.28 320.565 1094.52 323.449 1096.99 325.784C1099.46 327.981 1102.62 329.973 1106.46 331.758C1110.45 333.543 1114.64 335.466 1119.03 337.526C1123.43 339.449 1127.55 341.715 1131.39 344.324C1135.24 346.933 1138.39 350.161 1140.87 354.006C1143.48 357.714 1144.78 362.452 1144.78 368.22C1144.78 368.22 1144.16 368.22 1142.93 368.22C1141.69 368.22 1140.11 368.22 1138.19 368.22C1136.4 368.22 1134.62 368.22 1132.83 368.22C1131.05 368.22 1129.54 368.22 1128.3 368.22C1127.06 368.22 1126.45 368.22 1126.45 368.22ZM1108.94 398.09V381.816C1114.02 381.816 1118.21 380.58 1121.5 378.108C1124.8 375.499 1126.45 372.203 1126.45 368.22H1144.78C1144.78 373.988 1143.2 379.138 1140.04 383.67C1137.02 388.202 1132.83 391.773 1127.48 394.382C1122.12 396.854 1115.94 398.09 1108.94 398.09ZM1075.15 317.132C1075.15 311.501 1076.53 306.489 1079.27 302.094C1082.16 297.562 1086.14 294.06 1091.22 291.588C1096.3 288.979 1101.93 287.674 1108.11 287.674V303.948C1103.86 303.948 1100.28 305.184 1097.4 307.656C1094.65 310.128 1093.28 313.287 1093.28 317.132H1075.15ZM1089.37 363.894C1090.05 369.937 1092.25 374.469 1095.96 377.49C1099.67 380.374 1103.99 381.816 1108.94 381.816V398.09C1102.62 398.09 1096.78 396.785 1091.43 394.176C1086.07 391.567 1081.68 387.927 1078.24 383.258C1074.95 378.589 1072.89 373.301 1072.06 367.396L1089.37 363.894ZM1127.48 321.87C1126.79 315.69 1124.59 311.158 1120.88 308.274C1117.31 305.39 1113.06 303.948 1108.11 303.948V287.674C1114.57 287.674 1120.4 288.979 1125.62 291.588C1130.84 294.197 1135.17 297.837 1138.6 302.506C1142.03 307.038 1144.16 312.325 1144.99 318.368L1127.48 321.87Z" fill="#BBDCFF"/>
<defs>
<clipPath id="clip0_1507_2">
<rect y="33.0767" width="362.846" height="362.904" fill="white"/>
</clipPath>
</defs>
</svg>
