<svg width="1153" height="430" viewBox="0 0 1153 430" fill="none" xmlns="http://www.w3.org/2000/svg">
<g clip-path="url(#clip0_1455_3)">
<path d="M14.1412 364.821C6.33067 357.011 6.33067 344.348 14.1412 336.537L303.459 47.2188C311.27 39.4083 323.933 39.4083 331.744 47.2188L348.703 64.1779C356.513 71.9884 356.513 84.6517 348.703 92.4621L59.3845 381.78C51.574 389.591 38.9107 389.591 31.1002 381.78L14.1412 364.821Z" fill="#BBDCFF"/>
<path d="M270.142 364.879C262.332 357.069 262.332 344.406 270.142 336.595L301.012 305.725C308.823 297.915 321.486 297.915 329.296 305.725L346.256 322.684C354.066 330.495 354.066 343.158 346.255 350.968L315.385 381.838C307.575 389.649 294.912 389.649 287.101 381.839L270.142 364.879Z" fill="#2C3B73"/>
<path d="M142.142 364.849C134.332 357.038 134.332 344.375 142.142 336.564L300.091 178.615C307.902 170.805 320.565 170.805 328.376 178.615L345.335 195.574C353.145 203.385 353.145 216.048 345.335 223.859L187.385 381.808C179.575 389.618 166.912 389.618 159.101 381.808L142.142 364.849Z" fill="#47568C"/>
</g>
<path d="M522.954 144.568V69.996H541.7V144.568H522.954ZM460.33 144.568V69.996H479.076V144.568H460.33ZM541.7 70.202H522.954C522.954 63.0607 520.963 57.5673 516.98 53.722C513.135 49.8767 507.779 47.954 500.912 47.954V31.68C509.015 31.68 516.087 33.328 522.13 36.624C528.31 39.7827 533.117 44.3147 536.55 50.22C539.983 55.988 541.7 62.6487 541.7 70.202ZM460.33 70.202C460.33 62.6487 462.047 55.988 465.48 50.22C468.913 44.3147 473.72 39.7827 479.9 36.624C486.08 33.328 493.153 31.68 501.118 31.68V47.954C494.251 47.954 488.827 49.8767 484.844 53.722C480.999 57.5673 479.076 63.0607 479.076 70.202H460.33ZM541.7 144.362C541.7 152.053 539.983 158.782 536.55 164.55C533.117 170.318 528.31 174.85 522.13 178.146C516.087 181.442 509.015 183.09 500.912 183.09V166.816C507.779 166.816 513.135 164.893 516.98 161.048C520.963 157.065 522.954 151.503 522.954 144.362H541.7ZM460.33 144.362H479.076C479.076 151.503 480.999 157.065 484.844 161.048C488.827 164.893 494.251 166.816 501.118 166.816V183.09C493.153 183.09 486.08 181.442 479.9 178.146C473.72 174.85 468.913 170.318 465.48 164.55C462.047 158.782 460.33 152.053 460.33 144.362ZM563.306 180V75.97H582.052V180H563.306ZM621.192 180V109.136H639.938V180H621.192ZM621.192 109.136C621.192 103.368 619.407 98.6987 615.836 95.128C612.265 91.42 607.665 89.566 602.034 89.566L606.772 72.88C613.089 72.88 618.72 74.4593 623.664 77.618C628.745 80.7767 632.728 85.1027 635.612 90.596C638.496 96.0893 639.938 102.269 639.938 109.136H621.192ZM573.812 109.548C573.812 102.544 575.254 96.2953 578.138 90.802C581.022 85.1713 584.936 80.7767 589.88 77.618C594.824 74.4593 600.455 72.88 606.772 72.88L602.034 89.566C596.129 89.566 591.322 91.42 587.614 95.128C583.906 98.836 582.052 103.643 582.052 109.548H573.812ZM665.612 148.482V34.564L684.358 34.77V148.482H665.612ZM653.664 91.42V75.97H710.314V91.42H653.664ZM665.612 148.276H684.358C684.358 152.259 684.908 155.623 686.006 158.37C687.105 161.117 688.684 163.245 690.744 164.756C692.804 166.129 695.276 166.816 698.16 166.816L696.512 183.09C686.899 183.09 679.346 180.069 673.852 174.026C668.359 167.846 665.612 159.263 665.612 148.276ZM707.842 163.314L715.258 176.704C712.512 178.764 709.49 180.343 706.194 181.442C703.036 182.541 699.808 183.09 696.512 183.09L698.16 166.816C699.946 166.816 701.594 166.541 703.104 165.992C704.752 165.305 706.332 164.413 707.842 163.314ZM778.291 143.126V112.844H797.037V143.126H778.291ZM720.405 143.126V112.844H739.151V143.126H720.405ZM758.103 89.154V72.88H759.339V89.154H758.103ZM758.103 183.09V166.816H759.339V183.09H758.103ZM720.405 113.05C720.405 105.359 722.053 98.4927 725.349 92.45C728.782 86.4073 733.314 81.6693 738.945 78.236C744.713 74.6653 751.236 72.88 758.515 72.88V89.154C752.472 89.154 747.734 91.214 744.301 95.334C740.868 99.454 739.151 105.359 739.151 113.05H720.405ZM797.037 113.05H778.291C778.291 105.359 776.574 99.454 773.141 95.334C769.845 91.214 765.107 89.154 758.927 89.154V72.88C766.206 72.88 772.66 74.6653 778.291 78.236C784.059 81.6693 788.591 86.4073 791.887 92.45C795.32 98.4927 797.037 105.359 797.037 113.05ZM720.405 142.92H739.151C739.151 150.473 740.868 156.379 744.301 160.636C747.734 164.756 752.472 166.816 758.515 166.816V183.09C751.236 183.09 744.713 181.373 738.945 177.94C733.314 174.369 728.782 169.563 725.349 163.52C722.053 157.477 720.405 150.611 720.405 142.92ZM797.037 142.92C797.037 150.611 795.32 157.477 791.887 163.52C788.591 169.563 784.059 174.369 778.291 177.94C772.66 181.373 766.206 183.09 758.927 183.09V166.816C765.107 166.816 769.845 164.756 773.141 160.636C776.574 156.379 778.291 150.473 778.291 142.92H797.037ZM816.082 180V31.68H834.828V180H816.082ZM911.773 143.126V112.844H930.519V143.126H911.773ZM853.887 143.126V112.844H872.633V143.126H853.887ZM891.585 89.154V72.88H892.821V89.154H891.585ZM891.585 183.09V166.816H892.821V183.09H891.585ZM853.887 113.05C853.887 105.359 855.535 98.4927 858.831 92.45C862.264 86.4073 866.796 81.6693 872.427 78.236C878.195 74.6653 884.718 72.88 891.997 72.88V89.154C885.954 89.154 881.216 91.214 877.783 95.334C874.349 99.454 872.633 105.359 872.633 113.05H853.887ZM930.519 113.05H911.773C911.773 105.359 910.056 99.454 906.623 95.334C903.327 91.214 898.589 89.154 892.409 89.154V72.88C899.687 72.88 906.142 74.6653 911.773 78.236C917.541 81.6693 922.073 86.4073 925.369 92.45C928.802 98.4927 930.519 105.359 930.519 113.05ZM853.887 142.92H872.633C872.633 150.473 874.349 156.379 877.783 160.636C881.216 164.756 885.954 166.816 891.997 166.816V183.09C884.718 183.09 878.195 181.373 872.427 177.94C866.796 174.369 862.264 169.563 858.831 163.52C855.535 157.477 853.887 150.611 853.887 142.92ZM930.519 142.92C930.519 150.611 928.802 157.477 925.369 163.52C922.073 169.563 917.541 174.369 911.773 177.94C906.142 181.373 899.687 183.09 892.409 183.09V166.816C898.589 166.816 903.327 164.756 906.623 160.636C910.056 156.379 911.773 150.473 911.773 142.92H930.519ZM1003.71 183.708V75.97H1022.45V183.708H1003.71ZM945.822 144.156V109.136H964.568V144.156H945.822ZM964.568 109.136H945.822C945.822 102.269 947.264 96.0893 950.148 90.596C953.032 85.1027 956.946 80.7767 961.89 77.618C966.971 74.4593 972.739 72.88 979.194 72.88L983.932 89.566C978.301 89.566 973.632 91.42 969.924 95.128C966.353 98.6987 964.568 103.368 964.568 109.136ZM1011.95 109.548H1003.71C1003.71 103.643 1001.85 98.836 998.146 95.128C994.438 91.42 989.7 89.566 983.932 89.566L979.194 72.88C985.374 72.88 990.936 74.4593 995.88 77.618C1000.96 80.7767 1004.88 85.1713 1007.62 90.802C1010.51 96.2953 1011.95 102.544 1011.95 109.548ZM964.568 144.156C964.568 149.924 966.353 154.662 969.924 158.37C973.632 161.941 978.301 163.726 983.932 163.726L979.194 180.412C972.739 180.412 966.971 178.833 961.89 175.674C956.946 172.515 953.032 168.189 950.148 162.696C947.264 157.203 945.822 151.023 945.822 144.156H964.568ZM1011.95 143.538C1011.95 150.542 1010.51 156.859 1007.62 162.49C1004.88 167.983 1000.96 172.378 995.88 175.674C990.936 178.833 985.374 180.412 979.194 180.412L983.932 163.726C989.7 163.726 994.438 161.872 998.146 158.164C1001.85 154.456 1003.71 149.581 1003.71 143.538H1011.95ZM1022.45 183.09C1022.45 190.094 1020.81 196.343 1017.51 201.836C1014.21 207.467 1009.68 211.861 1003.91 215.02C998.146 218.316 991.623 219.964 984.344 219.964V203.69C989.975 203.69 994.575 201.699 998.146 197.716C1001.85 193.871 1003.71 188.995 1003.71 183.09H1022.45ZM964.774 185.768C965.461 191.811 967.658 196.274 971.366 199.158C975.074 202.179 979.4 203.69 984.344 203.69V219.964C978.027 219.964 972.19 218.659 966.834 216.05C961.478 213.441 957.083 209.801 953.65 205.132C950.354 200.463 948.294 195.175 947.47 189.27L964.774 185.768ZM1045.85 218.11L1049.76 202.66C1055.12 204.033 1059.58 203.69 1063.15 201.63C1066.72 199.57 1069.54 195.313 1071.6 188.858H1088.9C1084.78 201.767 1079.08 210.557 1071.8 215.226C1064.66 219.895 1056.01 220.857 1045.85 218.11ZM1071.6 188.858L1106.82 75.97H1125.57L1088.9 188.858H1071.6ZM1075.1 187.622L1038.84 75.97H1057.59L1084.37 161.46L1075.1 187.622ZM471.866 395V378.726H528.928V395H471.866ZM474.956 330.934V314.248H516.568V330.934H474.956ZM461.36 249.77H480.106V395H461.36V249.77ZM473.926 249.77H526.868V266.044H473.926V249.77ZM549.473 395V246.68H568.219V395H549.473ZM593.252 348.65V335.26H663.498V348.65H593.252ZM625.182 398.296V382.022H626.212V398.296H625.182ZM587.278 358.126V327.844H606.024V358.126H587.278ZM644.752 335.26V324.548H663.498V335.26H644.752ZM663.498 324.548H644.752C644.752 318.505 642.898 313.561 639.19 309.716C635.619 305.871 630.95 303.948 625.182 303.948V287.88C632.598 287.88 639.121 289.459 644.752 292.618C650.52 295.777 655.052 300.171 658.348 305.802C661.781 311.295 663.498 317.544 663.498 324.548ZM645.576 364.1L663.086 367.602C662.262 373.507 660.133 378.795 656.7 383.464C653.266 388.133 648.94 391.773 643.722 394.382C638.503 396.991 632.666 398.296 626.212 398.296V382.022C631.156 382.022 635.413 380.58 638.984 377.696C642.692 374.675 644.889 370.143 645.576 364.1ZM587.278 328.05C587.278 320.222 588.926 313.355 592.222 307.45C595.655 301.407 600.187 296.669 605.818 293.236C611.586 289.665 618.109 287.88 625.388 287.88V303.948C619.345 303.948 614.607 306.077 611.174 310.334C607.74 314.454 606.024 320.359 606.024 328.05H587.278ZM587.278 358.126H606.024C606.024 365.679 607.74 371.585 611.174 375.842C614.607 379.962 619.345 382.022 625.388 382.022V398.296C618.109 398.296 611.586 396.579 605.818 393.146C600.187 389.575 595.655 384.769 592.222 378.726C588.926 372.683 587.278 365.817 587.278 358.126ZM680.493 395V290.97H699.239V395H680.493ZM734.259 395V324.136H753.005V395H734.259ZM690.793 324.548C690.793 317.544 692.097 311.295 694.707 305.802C697.453 300.171 701.161 295.777 705.831 292.618C710.5 289.459 715.719 287.88 721.487 287.88L716.749 304.566C711.805 304.566 707.616 306.42 704.183 310.128C700.887 313.836 699.239 318.643 699.239 324.548H690.793ZM734.259 324.136C734.259 318.368 732.611 313.699 729.315 310.128C726.019 306.42 721.83 304.566 716.749 304.566L721.487 287.88C727.529 287.88 732.885 289.459 737.555 292.618C742.361 295.777 746.138 300.103 748.885 305.596C751.631 310.952 753.005 317.132 753.005 324.136H734.259ZM787.819 395V324.136H806.565V395H787.819ZM744.559 324.548C744.559 317.544 745.863 311.295 748.473 305.802C751.219 300.171 754.859 295.777 759.391 292.618C764.06 289.459 769.279 287.88 775.047 287.88L770.309 304.566C765.365 304.566 761.245 306.42 757.949 310.128C754.653 313.836 753.005 318.643 753.005 324.548H744.559ZM787.819 324.136C787.819 318.368 786.171 313.699 782.875 310.128C779.716 306.42 775.527 304.566 770.309 304.566L775.047 287.88C781.089 287.88 786.445 289.459 791.115 292.618C795.921 295.777 799.698 300.103 802.445 305.596C805.191 310.952 806.565 317.132 806.565 324.136H787.819ZM827.721 348.65V335.26H897.967V348.65H827.721ZM859.651 398.296V382.022H860.681V398.296H859.651ZM821.747 358.126V327.844H840.493V358.126H821.747ZM879.221 335.26V324.548H897.967V335.26H879.221ZM897.967 324.548H879.221C879.221 318.505 877.367 313.561 873.659 309.716C870.089 305.871 865.419 303.948 859.651 303.948V287.88C867.067 287.88 873.591 289.459 879.221 292.618C884.989 295.777 889.521 300.171 892.817 305.802C896.251 311.295 897.967 317.544 897.967 324.548ZM880.045 364.1L897.555 367.602C896.731 373.507 894.603 378.795 891.169 383.464C887.736 388.133 883.41 391.773 878.191 394.382C872.973 396.991 867.136 398.296 860.681 398.296V382.022C865.625 382.022 869.883 380.58 873.453 377.696C877.161 374.675 879.359 370.143 880.045 364.1ZM821.747 328.05C821.747 320.222 823.395 313.355 826.691 307.45C830.125 301.407 834.657 296.669 840.287 293.236C846.055 289.665 852.579 287.88 859.857 287.88V303.948C853.815 303.948 849.077 306.077 845.643 310.334C842.21 314.454 840.493 320.359 840.493 328.05H821.747ZM821.747 358.126H840.493C840.493 365.679 842.21 371.585 845.643 375.842C849.077 379.962 853.815 382.022 859.857 382.022V398.296C852.579 398.296 846.055 396.579 840.287 393.146C834.657 389.575 830.125 384.769 826.691 378.726C823.395 372.683 821.747 365.817 821.747 358.126ZM914.962 395V290.97H933.708V395H914.962ZM972.848 395V324.136H991.594V395H972.848ZM972.848 324.136C972.848 318.368 971.063 313.699 967.492 310.128C963.922 306.42 959.321 304.566 953.69 304.566L958.428 287.88C964.746 287.88 970.376 289.459 975.32 292.618C980.402 295.777 984.384 300.103 987.268 305.596C990.152 311.089 991.594 317.269 991.594 324.136H972.848ZM925.468 324.548C925.468 317.544 926.91 311.295 929.794 305.802C932.678 300.171 936.592 295.777 941.536 292.618C946.48 289.459 952.111 287.88 958.428 287.88L953.69 304.566C947.785 304.566 942.978 306.42 939.27 310.128C935.562 313.836 933.708 318.643 933.708 324.548H925.468ZM1017.27 363.482V249.564L1036.01 249.77V363.482H1017.27ZM1005.32 306.42V290.97H1061.97V306.42H1005.32ZM1017.27 363.276H1036.01C1036.01 367.259 1036.56 370.623 1037.66 373.37C1038.76 376.117 1040.34 378.245 1042.4 379.756C1044.46 381.129 1046.93 381.816 1049.82 381.816L1048.17 398.09C1038.56 398.09 1031 395.069 1025.51 389.026C1020.02 382.846 1017.27 374.263 1017.27 363.276ZM1059.5 378.314L1066.91 391.704C1064.17 393.764 1061.15 395.343 1057.85 396.442C1054.69 397.541 1051.46 398.09 1048.17 398.09L1049.82 381.816C1051.6 381.816 1053.25 381.541 1054.76 380.992C1056.41 380.305 1057.99 379.413 1059.5 378.314ZM1126.45 368.22C1126.45 364.787 1125.21 361.971 1122.74 359.774C1120.27 357.439 1117.04 355.379 1113.06 353.594C1109.21 351.671 1105.09 349.749 1100.7 347.826C1096.44 345.903 1092.32 343.706 1088.34 341.234C1084.49 338.625 1081.33 335.397 1078.86 331.552C1076.39 327.569 1075.15 322.763 1075.15 317.132C1075.15 317.132 1075.7 317.132 1076.8 317.132C1078.04 317.132 1079.55 317.132 1081.33 317.132C1083.25 317.132 1085.11 317.132 1086.89 317.132C1088.68 317.132 1090.19 317.132 1091.43 317.132C1092.66 317.132 1093.28 317.132 1093.28 317.132C1093.28 320.565 1094.52 323.449 1096.99 325.784C1099.46 327.981 1102.62 329.973 1106.46 331.758C1110.45 333.543 1114.63 335.466 1119.03 337.526C1123.42 339.449 1127.54 341.715 1131.39 344.324C1135.23 346.933 1138.39 350.161 1140.87 354.006C1143.47 357.714 1144.78 362.452 1144.78 368.22C1144.78 368.22 1144.16 368.22 1142.93 368.22C1141.69 368.22 1140.11 368.22 1138.19 368.22C1136.4 368.22 1134.62 368.22 1132.83 368.22C1131.05 368.22 1129.54 368.22 1128.3 368.22C1127.06 368.22 1126.45 368.22 1126.45 368.22ZM1108.94 398.09V381.816C1114.02 381.816 1118.21 380.58 1121.5 378.108C1124.8 375.499 1126.45 372.203 1126.45 368.22H1144.78C1144.78 373.988 1143.2 379.138 1140.04 383.67C1137.02 388.202 1132.83 391.773 1127.48 394.382C1122.12 396.854 1115.94 398.09 1108.94 398.09ZM1075.15 317.132C1075.15 311.501 1076.52 306.489 1079.27 302.094C1082.16 297.562 1086.14 294.06 1091.22 291.588C1096.3 288.979 1101.93 287.674 1108.11 287.674V303.948C1103.85 303.948 1100.28 305.184 1097.4 307.656C1094.65 310.128 1093.28 313.287 1093.28 317.132H1075.15ZM1089.37 363.894C1090.05 369.937 1092.25 374.469 1095.96 377.49C1099.67 380.374 1103.99 381.816 1108.94 381.816V398.09C1102.62 398.09 1096.78 396.785 1091.43 394.176C1086.07 391.567 1081.67 387.927 1078.24 383.258C1074.95 378.589 1072.89 373.301 1072.06 367.396L1089.37 363.894ZM1127.48 321.87C1126.79 315.69 1124.59 311.158 1120.88 308.274C1117.31 305.39 1113.06 303.948 1108.11 303.948V287.674C1114.57 287.674 1120.4 288.979 1125.62 291.588C1130.84 294.197 1135.17 297.837 1138.6 302.506C1142.03 307.038 1144.16 312.325 1144.99 318.368L1127.48 321.87Z" fill="#1C264B"/>
<defs>
<clipPath id="clip0_1455_3">
<rect x="-0.000976562" y="33.0767" width="362.846" height="362.904" fill="white"/>
</clipPath>
</defs>
</svg>
